<svg width="93" height="93" viewBox="0 0 93 93" fill="none" xmlns="http://www.w3.org/2000/svg">
<circle cx="46.5" cy="46.5" r="46.5" fill="#333333"/>
<path d="M59.105 38.525H51.5V40.64H59.135L59.105 38.525ZM57.5 53.075C56.9231 53.4573 56.2418 53.6512 55.55 53.63C55.0921 53.6777 54.6293 53.6304 54.1905 53.4911C53.7517 53.3517 53.3464 53.1232 53 52.82C52.3595 52.0938 52.0261 51.1473 52.07 50.18H62C62.0716 49.1728 61.9855 48.1606 61.745 47.18C61.5123 46.247 61.1051 45.3665 60.545 44.585C59.9812 43.8269 59.253 43.2064 58.415 42.77C57.4827 42.3103 56.4544 42.0789 55.415 42.095C54.4375 42.0878 53.4684 42.2765 52.565 42.65C51.7378 42.9987 50.9882 43.5086 50.36 44.15C49.7336 44.8042 49.2485 45.5803 48.935 46.43C48.5986 47.3473 48.4309 48.318 48.44 49.295C48.4246 50.2859 48.5871 51.2715 48.92 52.205C49.2027 53.0503 49.6515 53.8306 50.24 54.5C50.8489 55.1572 51.5972 55.6698 52.43 56C53.3587 56.3538 54.3464 56.5269 55.34 56.51C56.7341 56.5535 58.1106 56.1885 59.3 55.46C60.5014 54.6063 61.3663 53.3593 61.745 51.935H58.43C58.2525 52.4062 57.926 52.8065 57.5 53.075ZM52.355 46.895C52.4717 46.521 52.6655 46.1756 52.9239 45.8811C53.1822 45.5866 53.4994 45.3495 53.855 45.185C54.3259 44.973 54.8388 44.8705 55.355 44.885C55.7279 44.8531 56.1033 44.9023 56.4554 45.0292C56.8076 45.1561 57.1281 45.3576 57.395 45.62C57.9047 46.2439 58.2317 46.9967 58.34 47.795H52.115C52.1393 47.4902 52.1946 47.1886 52.28 46.895H52.355ZM44.42 46.175C45.1834 45.8571 45.8468 45.3388 46.34 44.675C46.7933 43.97 47.0185 43.1425 46.985 42.305C47.0144 41.5413 46.8655 40.7812 46.55 40.085C46.285 39.4819 45.8595 38.963 45.32 38.585C44.748 38.192 44.0984 37.926 43.415 37.805C42.6062 37.6354 41.7813 37.5549 40.955 37.565H32V56.435H41.15C41.985 56.4356 42.8167 56.3297 43.625 56.12C44.3911 55.9218 45.1169 55.5919 45.77 55.145C46.4026 54.7066 46.9177 54.1193 47.27 53.435C47.6599 52.6697 47.8507 51.8185 47.825 50.96C47.8534 49.8961 47.555 48.8491 46.97 47.96C46.3409 47.0659 45.4078 46.4314 44.345 46.175H44.42ZM36.155 40.79H40.04C40.3969 40.7896 40.7532 40.8197 41.105 40.88C41.4289 40.928 41.74 41.0402 42.02 41.21C42.2905 41.363 42.5097 41.5927 42.65 41.87C42.8237 42.2026 42.9065 42.5751 42.89 42.95C42.9179 43.2729 42.8686 43.5977 42.746 43.8977C42.6234 44.1977 42.4311 44.4641 42.185 44.675C41.6482 45.044 41.0058 45.2283 40.355 45.2H36.155V40.79ZM43.415 51.95C43.2609 52.2557 43.0278 52.5146 42.74 52.7C42.4405 52.8863 42.1104 53.0183 41.765 53.09C41.3811 53.1759 40.9884 53.2162 40.595 53.21H36.095V48.035H40.595C41.3672 48.0012 42.1298 48.2168 42.77 48.65C43.0592 48.9095 43.2833 49.2335 43.424 49.5958C43.5647 49.958 43.6181 50.3483 43.58 50.735C43.6206 51.1473 43.564 51.5634 43.415 51.95Z" fill="black"/>
</svg>
