<svg width="93" height="93" viewBox="0 0 93 93" fill="none" xmlns="http://www.w3.org/2000/svg">
<circle cx="46.5" cy="46.5" r="46.5" fill="#333333"/>
<g clip-path="url(#clip0_10_2195)">
<path d="M64.9625 47.777C61.181 46.586 56.771 46.445 52.376 47.408C51.6829 45.6961 50.9024 44.0209 50.0375 42.389C54.344 40.7945 58.0205 38.42 60.347 34.9685C63.227 38.162 65 42.3755 65 47C65 47.2625 64.97 47.5175 64.9625 47.777ZM59.18 33.788C57.0395 37.1405 53.468 39.425 49.2485 40.952C46.9944 36.9835 44.2586 33.3087 41.1035 30.011C42.9984 29.3457 44.9917 29.0039 47 29C51.6995 29 55.97 30.8255 59.18 33.788ZM39.3695 30.7205C42.5364 33.9577 45.2693 37.5926 47.4995 41.534C41.7605 43.2755 35.111 43.811 29.297 43.826C30.338 38.0105 34.175 33.167 39.3695 30.7205ZM29 47C29 46.481 29.033 45.971 29.078 45.4655C35.177 45.4625 42.2075 44.894 48.29 42.989C49.133 44.5739 49.8974 46.1994 50.5805 47.8595C44.4185 49.643 38.498 53.657 34.649 60.062C31.1795 56.777 29 52.142 29 47ZM35.8985 61.142C39.548 54.923 45.254 51.0485 51.1685 49.367C52.9025 53.966 53.996 58.739 54.329 63.4235C52.0251 64.4617 49.527 64.9991 47 65C42.8105 65 38.96 63.5495 35.8985 61.142ZM55.9685 62.5835C55.646 57.9725 54.6155 53.366 52.9715 48.9305C57.0965 48.0695 61.2275 48.242 64.742 49.4135C64.7675 49.4225 64.793 49.4165 64.8185 49.4225C64.445 52.146 63.4533 54.7478 61.9193 57.029C60.3853 59.3102 58.3498 61.2102 55.9685 62.5835Z" fill="black"/>
</g>
<defs>
<clipPath id="clip0_10_2195">
<rect width="36" height="36" fill="white" transform="translate(29 29)"/>
</clipPath>
</defs>
</svg>
