<svg width="93" height="93" viewBox="0 0 93 93" fill="none" xmlns="http://www.w3.org/2000/svg">
<circle cx="46.5" cy="46.5" r="46.5" fill="#333333"/>
<g clip-path="url(#clip0_10_2198)">
<path d="M31 35.485C31 34.4748 31.3535 33.6415 32.0606 32.985C32.7677 32.3284 33.6869 32.0001 34.8182 32.0001C35.9293 32.0001 36.8283 32.3233 37.5151 32.9698C38.2222 33.6365 38.5757 34.5051 38.5757 35.5759C38.5757 36.5456 38.2323 37.3536 37.5454 38.0001C36.8384 38.6668 35.9091 39.0001 34.7576 39.0001H34.7273C33.6161 39.0001 32.7172 38.6668 32.0303 38.0001C31.3434 37.3334 31 36.4951 31 35.485ZM31.3939 62.0001V41.7577H38.1212V62.0001H31.3939ZM41.8485 62.0001H48.5757V50.6971C48.5757 49.99 48.6565 49.4445 48.8182 49.0607C49.101 48.3738 49.5303 47.793 50.106 47.3183C50.6818 46.8435 51.404 46.6062 52.2727 46.6062C54.5353 46.6062 55.6666 48.1314 55.6666 51.1819V62.0001H62.3939V50.394C62.3939 47.4041 61.6868 45.1365 60.2727 43.591C58.8585 42.0456 56.9899 41.2728 54.6666 41.2728C52.0606 41.2728 50.0303 42.394 48.5757 44.6365V44.6971H48.5454L48.5757 44.6365V41.7577H41.8485C41.8889 42.4041 41.9091 44.4142 41.9091 47.788C41.9091 51.1617 41.8889 55.8991 41.8485 62.0001Z" fill="black"/>
</g>
<defs>
<clipPath id="clip0_10_2198">
<rect width="31.3939" height="30" fill="white" transform="translate(31 32)"/>
</clipPath>
</defs>
</svg>
