<svg width="93" height="93" viewBox="0 0 93 93" fill="none" xmlns="http://www.w3.org/2000/svg">
<circle cx="46.5" cy="46.5" r="46.5" fill="#333333"/>
<path d="M62 37.7C60.8725 38.1892 59.6801 38.5125 58.46 38.66C59.7473 37.891 60.7119 36.6812 61.175 35.255C59.9653 35.9751 58.6411 36.4825 57.26 36.755C56.3368 35.7539 55.1075 35.0875 53.7647 34.8603C52.422 34.6331 51.0418 34.858 49.8407 35.4998C48.6396 36.1415 47.6854 37.1638 47.1279 38.4063C46.5703 39.6487 46.4409 41.0411 46.76 42.365C44.3141 42.2413 41.9217 41.6044 39.738 40.4958C37.5543 39.3872 35.6283 37.8315 34.085 35.93C33.5437 36.8753 33.2593 37.9457 33.26 39.035C33.2581 40.0466 33.5063 41.0429 33.9826 41.9354C34.4589 42.8278 35.1485 43.5886 35.99 44.15C35.012 44.1234 34.0548 43.861 33.2 43.385V43.46C33.2073 44.8773 33.704 46.2486 34.606 47.342C35.508 48.4353 36.7599 49.1835 38.15 49.46C37.6149 49.6229 37.0593 49.7087 36.5 49.715C36.1128 49.7105 35.7266 49.6754 35.345 49.61C35.7409 50.8292 36.5069 51.8947 37.5366 52.6582C38.5663 53.4218 39.8084 53.8453 41.09 53.87C38.9258 55.5729 36.2538 56.5023 33.5 56.51C32.9986 56.5117 32.4976 56.4816 32 56.42C34.8116 58.2354 38.0882 59.1991 41.435 59.195C43.7445 59.219 46.0357 58.7825 48.1747 57.9111C50.3136 57.0397 52.2575 55.7508 53.8928 54.1198C55.5281 52.4887 56.8219 50.5481 57.6988 48.4114C58.5757 46.2746 59.0181 43.9846 59 41.675C59 41.42 59 41.15 59 40.88C60.177 40.0022 61.1922 38.9261 62 37.7Z" fill="black"/>
</svg>
